<svg width="333" height="84" viewBox="0 0 333 84" fill="none" xmlns="http://www.w3.org/2000/svg">
<g clip-path="url(#clip0_95_17649)">
<path d="M327.287 0H5.71265C2.55764 0 0 2.56419 0 5.72727V78.2727C0 81.4358 2.55764 84 5.71265 84H327.287C330.442 84 333 81.4358 333 78.2727V5.72727C333 2.56419 330.442 0 327.287 0Z" fill="#111111"/>
<mask id="mask0_95_17649" style="mask-type:luminance" maskUnits="userSpaceOnUse" x="11" y="11" width="62" height="62">
<path d="M67.2821 11.4546H16.5032C13.6987 11.4546 11.4253 13.7339 11.4253 16.5455V67.4546C11.4253 70.2662 13.6987 72.5455 16.5032 72.5455H67.2821C70.0866 72.5455 72.36 70.2662 72.36 67.4546V16.5455C72.36 13.7339 70.0866 11.4546 67.2821 11.4546Z" fill="white"/>
</mask>
<g mask="url(#mask0_95_17649)">
<path d="M72.3602 11.4546H11.4253V72.5455H72.3602V11.4546Z" fill="#C8FF52"/>
<path d="M42.5346 30.2802L37.1119 53.7205H28.2458C29.1323 49.7599 30.346 45.8811 31.8741 42.1245C33.6405 38.0421 35.6778 34.0846 37.9721 30.2788L42.5346 30.2802Z" fill="#111111"/>
<path d="M56.1745 30.2802L50.7518 53.7205H41.8855C42.7721 49.7599 43.9856 45.8811 45.5137 42.1245C47.2801 38.0421 49.3177 34.0846 51.6118 30.2788L56.1745 30.2802Z" fill="#111111"/>
</g>
<path d="M88.9651 60.2555L101.101 23.8555H109.937L121.921 60.2555H114.913L112.019 51.2446H98.156L95.3123 60.2555H88.9651ZM105.113 29.4046L99.7301 46.3065H110.445L105.113 29.4046ZM134.283 60.7137C129.002 60.7137 126.26 57.8627 126.26 52.8227V38.2628H122.705V33.6301H126.26V27.7754H132.404V33.6301H138.244V38.2628H132.404V52.2629C132.404 54.6046 133.521 55.6737 135.451 55.6737C136.67 55.6737 137.584 55.521 138.447 55.1647V60.052C137.482 60.4082 136.162 60.7137 134.283 60.7137ZM152.012 60.7137C146.731 60.7137 143.989 57.8627 143.989 52.8227V38.2628H140.434V33.6301H143.989V27.7754H150.133V33.6301H155.973V38.2628H150.133V52.2629C150.133 54.6046 151.25 55.6737 153.18 55.6737C154.399 55.6737 155.313 55.521 156.176 55.1647V60.052C155.211 60.4082 153.891 60.7137 152.012 60.7137ZM160.702 60.2555V33.6301H166.847V38.6191C168.522 35.2591 171.011 33.2736 175.479 33.2228V38.9756C170.097 39.0264 166.847 40.7573 166.847 46.4082V60.2555H160.702ZM183.018 29.2519C180.987 29.2519 179.362 27.7246 179.362 25.7391C179.362 23.7028 180.987 22.1755 183.018 22.1755C185.049 22.1755 186.674 23.7028 186.674 25.7391C186.674 27.7246 185.049 29.2519 183.018 29.2519ZM180.022 60.2555V33.6301H186.166V60.2555H180.022ZM207.467 60.7645C203.253 60.7645 200.206 58.6774 198.784 55.9791V60.2555H192.64V21.3101H198.784V37.9065C200.257 35.361 203.557 33.0701 207.467 33.0701C214.119 33.0701 219.248 38.0082 219.248 46.612V47.0191C219.248 55.5718 214.322 60.7645 207.467 60.7645ZM205.944 55.8773C210.463 55.8773 212.951 52.8227 212.951 47.121V46.7136C212.951 40.8083 209.905 37.9065 205.893 37.9065C201.628 37.9065 198.581 40.8083 198.581 46.7136V47.121C198.581 53.0773 201.475 55.8773 205.944 55.8773ZM232.644 60.7645C227.414 60.7645 223.504 57.761 223.504 50.6845V33.6301H229.648V49.972C229.648 53.9937 231.324 55.8264 234.878 55.8264C238.18 55.8264 241.074 53.6882 241.074 49.4627V33.6301H247.217V60.2555H241.074V56.081C239.753 58.6774 236.96 60.7645 232.644 60.7645ZM262.525 60.7137C257.246 60.7137 254.503 57.8627 254.503 52.8227V38.2628H250.947V33.6301H254.503V27.7754H260.647V33.6301H266.486V38.2628H260.647V52.2629C260.647 54.6046 261.763 55.6737 263.694 55.6737C264.912 55.6737 265.826 55.521 266.69 55.1647V60.052C265.724 60.4082 264.405 60.7137 262.525 60.7137ZM282.895 60.7645C275.076 60.7645 269.44 55.6229 269.44 47.2229V46.8155C269.44 38.5682 275.076 33.0701 282.641 33.0701C289.244 33.0701 295.185 36.9901 295.185 46.5101V48.292H275.735C275.938 53.332 278.478 56.1827 283.048 56.1827C286.754 56.1827 288.684 54.7065 289.141 52.1101H295.082C294.218 57.71 289.701 60.7645 282.895 60.7645ZM275.838 44.1683H289.091C288.787 39.5865 286.449 37.55 282.641 37.55C278.935 37.55 276.447 40.0447 275.838 44.1683ZM308.995 60.7645C302.14 60.7645 298.127 57.6083 297.874 51.9574H303.663C303.968 54.6554 305.339 56.2338 308.943 56.2338C312.244 56.2338 313.717 55.0628 313.717 52.8227C313.717 50.6337 311.939 49.8192 308.029 49.1572C301.021 48.0373 298.431 46.0519 298.431 41.0627C298.431 35.7173 303.409 33.0701 308.386 33.0701C313.817 33.0701 318.135 35.1063 318.795 41.1138H313.108C312.599 38.6701 311.228 37.55 308.386 37.55C305.744 37.55 304.17 38.8229 304.17 40.7064C304.17 42.641 305.439 43.4047 309.654 44.1173C315.9 45.0847 319.606 46.612 319.606 52.2629C319.606 57.6591 315.798 60.7645 308.995 60.7645Z" fill="white"/>
</g>
<defs>
<clipPath id="clip0_95_17649">
<rect width="333" height="84" fill="white"/>
</clipPath>
</defs>
</svg>
