<svg width="333" height="78" viewBox="0 0 333 78" fill="none" xmlns="http://www.w3.org/2000/svg">
<g clip-path="url(#clip0_95_17670)">
<path d="M327.654 0H5.34582C2.3934 0 0 2.38103 0 5.31818V72.6818C0 75.619 2.3934 78 5.34582 78H327.654C330.607 78 333 75.619 333 72.6818V5.31818C333 2.38103 330.607 0 327.654 0Z" fill="#111111"/>
<mask id="mask0_95_17670" style="mask-type:luminance" maskUnits="userSpaceOnUse" x="10" y="10" width="58" height="58">
<path d="M62.9617 10.6362H15.4435C12.8191 10.6362 10.6917 12.7527 10.6917 15.3635V62.6362C10.6917 65.247 12.8191 67.3635 15.4435 67.3635H62.9617C65.586 67.3635 67.7135 65.247 67.7135 62.6362V15.3635C67.7135 12.7527 65.586 10.6362 62.9617 10.6362Z" fill="white"/>
</mask>
<g mask="url(#mask0_95_17670)">
<path d="M67.7137 10.6362H10.6917V67.3635H67.7137V10.6362Z" fill="#2D62FF"/>
<path d="M55.8341 46.0908H22.5713V51.409H55.8341V46.0908Z" fill="white"/>
<path d="M36.8268 31.3179H22.5713V36.6361H36.8268V31.3179Z" fill="white"/>
</g>
<path d="M100.739 56.4244C90.0947 56.4244 84.1548 49.6645 84.1548 39.2644V38.8863C84.1548 28.7226 91.1877 21.6317 100.644 21.6317C108.437 21.6317 114.472 25.508 115.232 33.4498H108.817C108.104 28.9591 105.586 26.6426 100.691 26.6426C94.7039 26.6426 90.8074 31.2754 90.8074 38.8389V39.2172C90.8074 46.8282 94.4664 51.3189 100.739 51.3189C105.443 51.3189 108.769 48.9554 109.435 44.1808H115.612C114.614 52.3116 108.817 56.4244 100.739 56.4244ZM119.804 55.9517V19.7881H125.553V55.9517H119.804ZM134.557 27.1626C132.657 27.1626 131.136 25.7444 131.136 23.9008C131.136 22.0099 132.657 20.5917 134.557 20.5917C136.458 20.5917 137.979 22.0099 137.979 23.9008C137.979 25.7444 136.458 27.1626 134.557 27.1626ZM131.754 55.9517V31.2282H137.504V55.9517H131.754ZM154.491 56.4244C147.173 56.4244 141.898 51.65 141.898 43.85V43.4717C141.898 35.8135 147.173 30.7081 154.253 30.7081C160.43 30.7081 165.99 34.3482 165.99 43.1881V44.8427H147.791C147.981 49.5227 150.357 52.1698 154.633 52.1698C158.102 52.1698 159.908 50.7991 160.335 48.3882H165.895C165.087 53.588 160.858 56.4244 154.491 56.4244ZM147.886 41.0136H160.288C160.003 36.7591 157.817 34.868 154.253 34.868C150.784 34.868 148.456 37.1845 147.886 41.0136ZM170.175 55.9517V31.2282H175.925V35.1516C177.113 32.7407 179.869 30.7081 183.956 30.7081C188.945 30.7081 192.462 33.5916 192.462 40.3989V55.9517H186.712V40.919C186.712 37.1845 185.191 35.4827 181.77 35.4827C178.539 35.4827 175.925 37.4682 175.925 41.3916V55.9517H170.175ZM206.593 56.3772C201.651 56.3772 199.085 53.7298 199.085 49.0498V35.5299H195.759V31.2282H199.085V25.7916H204.835V31.2282H210.3V35.5299H204.835V48.53C204.835 50.7044 205.881 51.6972 207.686 51.6972C208.827 51.6972 209.682 51.5554 210.49 51.2245V55.7627C209.587 56.0935 208.352 56.3772 206.593 56.3772ZM213.966 45.1263V40.3989H225.371V45.1263H213.966ZM231.002 55.9517V22.1517H252.053V27.1626H237.323V37.2317H248.917V42.1007H237.323V55.9517H231.002ZM258.602 27.1626C256.702 27.1626 255.18 25.7444 255.18 23.9008C255.18 22.0099 256.702 20.5917 258.602 20.5917C260.504 20.5917 262.023 22.0099 262.023 23.9008C262.023 25.7444 260.504 27.1626 258.602 27.1626ZM255.8 55.9517V31.2282H261.549V55.9517H255.8ZM267.607 55.9517V31.2282H273.356V35.8607C274.924 32.7407 277.252 30.8971 281.435 30.8499V36.1918C276.397 36.239 273.356 37.8462 273.356 43.0935V55.9517H267.607ZM293.955 56.4244C287.54 56.4244 283.787 53.4936 283.549 48.2463H288.966C289.251 50.7516 290.534 52.2173 293.909 52.2173C296.998 52.2173 298.375 51.1299 298.375 49.0498C298.375 47.0172 296.713 46.2609 293.053 45.6462C286.496 44.6063 284.072 42.7626 284.072 38.1298C284.072 33.1662 288.73 30.7081 293.385 30.7081C298.47 30.7081 302.509 32.5989 303.128 38.1773H297.804C297.33 35.9082 296.047 34.868 293.385 34.868C290.915 34.868 289.443 36.05 289.443 37.799C289.443 39.5954 290.63 40.3045 294.575 40.9662C300.419 41.8645 303.888 43.2827 303.888 48.53C303.888 53.5408 300.324 56.4244 293.955 56.4244ZM316.439 56.3772C311.496 56.3772 308.93 53.7298 308.93 49.0498V35.5299H305.605V31.2282H308.93V25.7916H314.682V31.2282H320.146V35.5299H314.682V48.53C314.682 50.7044 315.726 51.6972 317.533 51.6972C318.673 51.6972 319.529 51.5554 320.335 51.2245V55.7627C319.433 56.0935 318.197 56.3772 316.439 56.3772Z" fill="white"/>
</g>
<defs>
<clipPath id="clip0_95_17670">
<rect width="333" height="78" fill="white"/>
</clipPath>
</defs>
</svg>
