<svg width="229" height="49" viewBox="0 0 229 49" fill="none" xmlns="http://www.w3.org/2000/svg">
<g clip-path="url(#clip0_1973_3221)">
<path d="M47.9999 0.979004H0V48.979H47.9999V0.979004Z" fill="#2D62FF"/>
<rect x="10" y="30.9789" width="27.9999" height="4.5" fill="white"/>
<rect x="10" y="18.4789" width="12" height="4.5" fill="white"/>
</g>
<path d="M72.64 36.799C65.472 36.799 61.472 32.223 61.472 25.183V24.927C61.472 18.047 66.208 13.247 72.576 13.247C77.824 13.247 81.888 15.871 82.4 21.247H78.08C77.6 18.207 75.904 16.639 72.608 16.639C68.576 16.639 65.952 19.775 65.952 24.895V25.151C65.952 30.303 68.416 33.343 72.64 33.343C75.808 33.343 78.048 31.743 78.496 28.511H82.656C81.984 34.015 78.08 36.799 72.64 36.799ZM86.1188 36.479V11.999H89.9908V36.479H86.1188ZM96.6943 16.991C95.4143 16.991 94.3903 16.031 94.3903 14.783C94.3903 13.503 95.4143 12.543 96.6943 12.543C97.9743 12.543 98.9983 13.503 98.9983 14.783C98.9983 16.031 97.9743 16.991 96.6943 16.991ZM94.8063 36.479V19.743H98.6783V36.479H94.8063ZM110.758 36.799C105.83 36.799 102.278 33.567 102.278 28.287V28.031C102.278 22.847 105.83 19.391 110.598 19.391C114.758 19.391 118.502 21.855 118.502 27.839V28.959H106.246C106.374 32.127 107.974 33.919 110.854 33.919C113.19 33.919 114.406 32.991 114.694 31.359H118.438C117.894 34.879 115.046 36.799 110.758 36.799ZM106.31 26.367H114.662C114.47 23.487 112.998 22.207 110.598 22.207C108.262 22.207 106.694 23.775 106.31 26.367ZM121.96 36.479V19.743H125.832V22.399C126.632 20.767 128.488 19.391 131.24 19.391C134.6 19.391 136.968 21.343 136.968 25.951V36.479H133.096V26.303C133.096 23.775 132.072 22.623 129.768 22.623C127.592 22.623 125.832 23.967 125.832 26.623V36.479H121.96ZM147.125 36.767C143.797 36.767 142.069 34.975 142.069 31.807V22.655H139.829V19.743H142.069V16.063H145.941V19.743H149.621V22.655H145.941V31.455C145.941 32.927 146.645 33.599 147.861 33.599C148.629 33.599 149.205 33.503 149.749 33.279V36.351C149.141 36.575 148.309 36.767 147.125 36.767ZM152.73 29.151V25.951H160.41V29.151H152.73ZM164.843 36.479V13.599H179.019V16.991H169.099V23.807H176.907V27.103H169.099V36.479H164.843ZM184.069 16.991C182.789 16.991 181.765 16.031 181.765 14.783C181.765 13.503 182.789 12.543 184.069 12.543C185.349 12.543 186.373 13.503 186.373 14.783C186.373 16.031 185.349 16.991 184.069 16.991ZM182.181 36.479V19.743H186.053V36.479H182.181ZM190.773 36.479V19.743H194.645V22.879C195.701 20.767 197.269 19.519 200.085 19.487V23.103C196.693 23.135 194.645 24.223 194.645 27.775V36.479H190.773ZM209.157 36.799C204.837 36.799 202.309 34.815 202.149 31.263H205.797C205.989 32.959 206.853 33.951 209.125 33.951C211.205 33.951 212.133 33.215 212.133 31.807C212.133 30.431 211.013 29.919 208.549 29.503C204.133 28.799 202.501 27.551 202.501 24.415C202.501 21.055 205.637 19.391 208.773 19.391C212.197 19.391 214.917 20.671 215.333 24.447H211.749C211.429 22.911 210.565 22.207 208.773 22.207C207.109 22.207 206.117 23.007 206.117 24.191C206.117 25.407 206.917 25.887 209.573 26.335C213.509 26.943 215.845 27.903 215.845 31.455C215.845 34.847 213.445 36.799 209.157 36.799ZM224.938 36.767C221.61 36.767 219.882 34.975 219.882 31.807V22.655H217.642V19.743H219.882V16.063H223.754V19.743H227.434V22.655H223.754V31.455C223.754 32.927 224.458 33.599 225.674 33.599C226.442 33.599 227.018 33.503 227.562 33.279V36.351C226.954 36.575 226.122 36.767 224.938 36.767Z" fill="white"/>
<defs>
<clipPath id="clip0_1973_3221">
<rect y="0.979004" width="47.9999" height="48" rx="4" fill="white"/>
</clipPath>
</defs>
</svg>
