<svg width="73" height="73" viewBox="0 0 73 73" fill="none" xmlns="http://www.w3.org/2000/svg">
<path fill-rule="evenodd" clip-rule="evenodd" d="M25.6193 27.3129C20.6108 27.3129 16.5507 31.4261 16.5507 36.5C16.5507 41.5739 20.6108 45.6871 25.6193 45.6871H34.933V36.5V27.3129H25.6193ZM48.4134 22.8435L48.6585 22.8435C53.667 22.8435 57.7272 18.7303 57.7272 13.6565C57.7272 8.58258 53.667 4.46939 48.6585 4.46939H39.3448V22.8435L48.4134 22.8435ZM56.0509 25.0782C59.7178 22.6376 62.1389 18.4335 62.1389 13.6565C62.1389 6.11421 56.1035 0 48.6585 0H39.3448H37.1389H34.933H25.6193C18.1743 0 12.1389 6.11421 12.1389 13.6565C12.1389 18.4335 14.56 22.6376 18.2269 25.0782C14.56 27.5189 12.1389 31.723 12.1389 36.5C12.1389 41.277 14.56 45.4811 18.2269 47.9218C14.56 50.3624 12.1389 54.5665 12.1389 59.3435C12.1389 66.9014 18.2507 73 25.6803 73C33.1774 73 39.3448 66.8459 39.3448 59.2194V50.1565V47.9218V46.6044C41.7393 48.8112 44.9213 50.1565 48.4134 50.1565H48.6585C56.1035 50.1565 62.1389 44.0423 62.1389 36.5C62.1389 31.723 59.7178 27.5189 56.0509 25.0782ZM48.6585 27.3129L48.4134 27.3129C43.405 27.3129 39.3448 31.4261 39.3448 36.5C39.3448 41.5739 43.405 45.6871 48.4134 45.6871H48.6585C53.667 45.6871 57.7272 41.5739 57.7272 36.5C57.7272 31.4261 53.667 27.3129 48.6585 27.3129ZM16.5507 59.3435C16.5507 54.2697 20.6108 50.1565 25.6193 50.1565H34.933V59.2194C34.933 64.3462 30.7719 68.5306 25.6803 68.5306C20.6563 68.5306 16.5507 64.4018 16.5507 59.3435ZM34.933 22.8435H25.6193C20.6108 22.8435 16.5507 18.7303 16.5507 13.6565C16.5507 8.58258 20.6108 4.46939 25.6193 4.46939H34.933V22.8435Z" fill="white"/>
</svg>
