<svg width="300" height="81" viewBox="0 0 300 81" fill="none" xmlns="http://www.w3.org/2000/svg">
<g clip-path="url(#clip0_95_17600)">
<path d="M26.8831 27H0V54L26.8831 81V54H53.7661L26.8831 27H53.7661V0H0L26.8831 27Z" fill="white"/>
<path d="M94.6433 62.835H103.619V43.41H125.006V35.85H103.619V23.655H126.604V15.915H94.6433V62.835Z" fill="white"/>
<path d="M146.617 29.2948C144.437 29.2948 142.704 29.7898 141.405 30.7798C140.106 31.7698 139.165 33.2398 138.552 35.1898H138.463V29.5798H130.189V62.8348H138.776V44.4148C138.776 42.6898 139.06 41.2648 139.643 40.1098C140.225 38.9698 141.002 38.1148 142.017 37.5448C143.033 36.9748 144.153 36.6898 145.408 36.6898C146.199 36.6898 146.961 36.7048 147.693 36.7498C148.424 36.7948 148.947 36.8398 149.261 36.8698V29.3998C148.932 29.3848 148.544 29.3548 148.096 29.3248C147.663 29.2948 147.17 29.2798 146.617 29.2798V29.2948Z" fill="white"/>
<path d="M175.457 34.1851H175.367C174.695 33.0151 173.859 32.0401 172.858 31.2601C171.857 30.4801 170.737 29.8951 169.483 29.4901C168.243 29.0851 166.899 28.8901 165.45 28.8901C162.628 28.8901 160.133 29.6251 157.983 31.0801C155.832 32.5351 154.145 34.5601 152.95 37.1551C151.755 39.7501 151.143 42.7501 151.143 46.1701C151.143 49.5901 151.74 52.6651 152.935 55.2751C154.13 57.8851 155.802 59.9101 157.953 61.3501C160.104 62.7901 162.628 63.5251 165.51 63.5251C166.959 63.5251 168.303 63.3151 169.543 62.8801C170.782 62.4451 171.902 61.8151 172.903 60.9901C173.904 60.1651 174.71 59.1151 175.367 57.8551H175.487V62.8351H183.865V29.5801H175.457V34.1851ZM174.785 51.6001C174.098 53.1301 173.157 54.3151 171.932 55.1551C170.707 55.9951 169.274 56.4151 167.616 56.4151C166.063 56.4151 164.704 56.0101 163.539 55.2151C162.374 54.4201 161.463 53.2501 160.806 51.7351C160.163 50.2201 159.835 48.3601 159.835 46.1701C159.835 43.9801 160.163 42.1051 160.806 40.5901C161.448 39.0751 162.359 37.9201 163.539 37.1251C164.719 36.3301 166.063 35.9251 167.616 35.9251C169.274 35.9251 170.707 36.3451 171.932 37.1851C173.157 38.0251 174.113 39.2101 174.785 40.7401C175.472 42.2701 175.8 44.0851 175.8 46.1551C175.8 48.2251 175.457 50.0401 174.785 51.5701V51.6001Z" fill="white"/>
<path d="M234.122 30.2849C232.449 29.3699 230.567 28.9199 228.476 28.9199C226.639 28.9199 224.951 29.2499 223.428 29.8949C221.905 30.5399 220.605 31.4699 219.545 32.6849C218.858 33.4649 218.32 34.3349 217.902 35.2799C217.335 33.5849 216.349 32.1899 214.93 31.0949C213.063 29.6399 210.868 28.9199 208.344 28.9199C206.79 28.9199 205.327 29.2049 203.923 29.7899C202.519 30.3599 201.294 31.2599 200.234 32.4449C199.472 33.2999 198.845 34.3199 198.337 35.4899V29.5799H190.063V62.8349H198.651V43.0799C198.651 41.5649 198.935 40.2899 199.502 39.2549C200.07 38.2199 200.831 37.4249 201.772 36.8999C202.728 36.3599 203.759 36.0899 204.894 36.0899C206.611 36.0899 208 36.6149 209.061 37.6799C210.121 38.7449 210.659 40.1699 210.659 41.9399V62.8199H218.963V42.5999C218.963 41.3249 219.216 40.1849 219.709 39.1949C220.202 38.2049 220.919 37.4399 221.83 36.8999C222.741 36.3599 223.831 36.0749 225.101 36.0749C226.714 36.0749 228.088 36.5699 229.238 37.5749C230.388 38.5649 230.955 40.1249 230.955 42.2549V62.8199H239.513V40.8299C239.513 38.2499 239.02 36.0749 238.049 34.2899C237.079 32.5199 235.749 31.1699 234.077 30.2549L234.122 30.2849Z" fill="white"/>
<path d="M271.937 33.6451C270.533 32.1151 268.831 30.9301 266.874 30.0901C264.903 29.2501 262.707 28.8301 260.288 28.8301C257.151 28.8301 254.374 29.5801 251.969 31.0651C249.55 32.5501 247.668 34.6201 246.294 37.2451C244.92 39.8701 244.233 42.8701 244.233 46.2451C244.233 49.6201 244.905 52.5901 246.234 55.2001C247.578 57.8101 249.475 59.8651 251.924 61.3501C254.374 62.8351 257.271 63.5851 260.601 63.5851C263.23 63.5851 265.635 63.1051 267.815 62.1601C269.996 61.2151 271.788 59.9101 273.222 58.2451C274.655 56.5801 275.581 54.6451 275.999 52.4701H268.069C267.77 53.3551 267.307 54.1351 266.65 54.8101C265.993 55.4851 265.187 56.0251 264.201 56.4001C263.215 56.7751 262.095 56.9701 260.84 56.9701C259.078 56.9701 257.6 56.5951 256.375 55.8301C255.15 55.0801 254.209 54.0151 253.567 52.6501C252.985 51.4201 252.671 49.9951 252.611 48.4051H276.328V46.0801C276.328 43.5451 275.94 41.2201 275.178 39.1051C274.416 36.9901 273.326 35.1751 271.922 33.6451H271.937ZM252.686 42.7201C252.82 41.5501 253.104 40.4851 253.567 39.5551C254.209 38.2651 255.12 37.2601 256.3 36.5551C257.48 35.8501 258.869 35.5051 260.452 35.5051C262.035 35.5051 263.484 35.8501 264.649 36.5551C265.814 37.2601 266.725 38.2501 267.367 39.5551C267.83 40.4851 268.114 41.5501 268.248 42.7201H252.701H252.686Z" fill="white"/>
<path d="M298.835 29.3399C298.402 29.3099 297.909 29.2949 297.357 29.2949C295.176 29.2949 293.444 29.7899 292.144 30.7799C290.845 31.7699 289.904 33.2399 289.292 35.1899H289.202V29.5799H280.928V62.8349H289.516V44.4149C289.516 42.6899 289.799 41.2649 290.382 40.1099C290.949 38.9699 291.741 38.1149 292.742 37.5449C293.742 36.9749 294.877 36.6899 296.132 36.6899C296.923 36.6899 297.685 36.7049 298.417 36.7499C299.149 36.7949 299.671 36.8399 299.985 36.8699V29.3999C299.657 29.3849 299.268 29.3549 298.82 29.3249L298.835 29.3399Z" fill="white"/>
</g>
<defs>
<clipPath id="clip0_95_17600">
<rect width="300" height="81" fill="white"/>
</clipPath>
</defs>
</svg>
