<svg width="222" height="81" viewBox="0 0 222 81" fill="none" xmlns="http://www.w3.org/2000/svg">
<g clip-path="url(#clip0_95_17633)">
<path d="M64.4612 37.835V37.8701L61.5508 50.4656C61.3938 51.1784 60.6791 51.7022 59.856 51.7022H56.3392C56.2128 51.7026 56.0898 51.7435 55.9885 51.8189C55.8871 51.8942 55.8127 52 55.7761 52.1207C52.5327 63.0935 48.1415 70.6373 42.3424 75.1652C37.4097 79.0208 31.329 80.8163 23.2044 80.8163C15.9055 80.8163 10.9836 78.4754 6.80887 73.8557C1.29407 67.7429 -0.985494 57.7475 0.395237 45.7001C2.88326 23.0822 14.6466 0.259138 37.296 0.259138C44.1861 0.197038 49.5953 2.31654 53.3585 6.55014C57.3382 11.024 59.3579 17.7659 59.3687 26.5868C59.3589 26.9736 59.198 27.3413 58.9204 27.6116C58.6428 27.8819 58.2704 28.0335 57.8824 28.034H41.2866C40.9958 28.0251 40.7194 27.9054 40.5145 27.6995C40.3095 27.4936 40.1915 27.2171 40.1847 26.927C40.0493 20.8277 38.2354 17.855 34.6293 17.855C28.2671 17.855 24.5147 26.468 22.5248 31.2443C19.7444 37.9133 18.3285 45.1547 18.6074 52.3691C18.74 55.7279 19.2815 60.4529 22.4788 62.4077C25.3134 64.1438 29.3581 62.9936 31.8082 61.0712C34.2557 59.1515 36.2266 55.8278 37.055 52.7957C37.1714 52.3745 37.1796 52.0478 37.0686 51.8993C36.9521 51.7508 36.63 51.7157 36.3836 51.7157H32.1223C31.8967 51.7164 31.6737 51.668 31.4689 51.5738C31.2641 51.4796 31.0824 51.3419 30.9365 51.1703C30.8245 51.0364 30.745 50.8786 30.7042 50.7091C30.6633 50.5396 30.6622 50.363 30.7009 50.1929L33.614 37.5731C33.7575 36.9251 34.345 36.4391 35.0678 36.35V36.3203H63.0344C63.0994 36.3203 63.1671 36.3203 63.2294 36.3338C63.9549 36.4256 64.4666 37.1006 64.4531 37.835H64.4612Z" fill="#FFFCE1"/>
<path d="M112.608 23.355C112.596 23.7394 112.435 24.1041 112.158 24.3717C111.881 24.6393 111.51 24.7889 111.125 24.7887H95.8391C94.8374 24.7887 94.0009 23.9787 94.0009 22.9932C94.0009 18.5436 92.4577 16.3782 89.3009 16.3782C86.1442 16.3782 84.1083 18.3141 84.0488 21.6918C83.9811 25.4583 86.1171 28.8792 92.1978 34.7598C100.203 42.2496 103.411 48.8862 103.257 57.6558C103.005 71.8335 93.3376 81 78.626 81C71.1132 81 65.3737 78.9939 61.5564 75.0411C57.6822 71.0289 55.9062 65.1375 56.2771 57.5316C56.2898 57.1472 56.452 56.7828 56.7295 56.5157C57.0069 56.2486 57.3778 56.0997 57.7634 56.1006H73.5741C73.7946 56.1044 74.0114 56.157 74.209 56.2546C74.4066 56.3522 74.58 56.4924 74.7166 56.6649C74.8361 56.8072 74.9235 56.9733 74.9731 57.1522C75.0226 57.3311 75.033 57.5185 75.0036 57.7017C74.8276 60.4449 75.3068 62.4942 76.3898 63.6282C77.0828 64.3626 78.0493 64.7352 79.2541 64.7352C82.1753 64.7352 83.8863 62.6751 83.9513 59.0922C84.0054 55.9926 83.0227 53.2737 77.6676 47.7792C70.7504 41.04 64.5479 34.0767 64.7402 23.1282C64.8539 16.7805 67.3825 10.9728 71.8631 6.777C76.6009 2.3436 83.0795 0 90.6005 0C98.1349 0.054 103.845 2.1951 107.573 6.3693C111.103 10.3275 112.803 16.0407 112.614 23.3523L112.608 23.355Z" fill="#FFFCE1"/>
<path d="M159.992 78.3326L160.092 2.91619C160.095 2.72732 160.06 2.53978 159.989 2.36459C159.918 2.18939 159.813 2.03008 159.679 1.89601C159.546 1.76194 159.387 1.65582 159.212 1.58388C159.037 1.51194 158.849 1.47563 158.66 1.47709H135.003C134.207 1.47709 133.858 2.15749 133.63 2.61109L99.3774 77.8736V77.8871L99.3639 77.9033C98.9849 78.8294 99.705 79.8203 100.709 79.8203H117.246C118.139 79.8203 118.729 79.5503 119.022 78.9887L122.306 71.1182C122.709 70.0706 122.785 69.9734 123.933 69.9734H139.733C140.832 69.9734 140.856 69.995 140.837 71.0669L140.483 78.3839C140.48 78.5725 140.515 78.7598 140.586 78.9347C140.657 79.1096 140.763 79.2685 140.896 79.4023C141.029 79.5361 141.188 79.642 141.363 79.7138C141.538 79.7855 141.726 79.8217 141.915 79.8203H158.619C158.826 79.823 159.031 79.7804 159.219 79.6955C159.408 79.6106 159.575 79.4854 159.71 79.3289C159.826 79.193 159.912 79.0335 159.96 78.8615C160.009 78.6895 160.02 78.5091 159.992 78.3326ZM130.725 53.1524C130.571 53.1524 130.449 53.1497 130.352 53.1389C130.294 53.1345 130.238 53.1174 130.187 53.089C130.137 53.0605 130.093 53.0213 130.06 52.9741C130.026 52.927 130.003 52.873 129.993 52.8161C129.983 52.7592 129.985 52.7007 130 52.6448C130.032 52.5341 130.078 52.3883 130.143 52.2047L141.993 22.9718C142.096 22.6829 142.226 22.3994 142.362 22.124C142.554 21.7325 142.787 21.7055 142.86 21.9971C142.922 22.2401 141.501 52.0157 141.501 52.0157C141.39 53.1308 141.338 53.1767 140.236 53.2685L130.736 53.1578H130.715L130.725 53.1524Z" fill="#FFFCE1"/>
<path d="M193.695 1.47685H181.136C180.472 1.47685 179.728 1.82785 179.552 2.61625L162.076 78.2945C162.038 78.4656 162.039 78.6432 162.08 78.8137C162.122 78.9841 162.202 79.1428 162.315 79.2773C162.46 79.4485 162.641 79.586 162.846 79.6802C163.05 79.7744 163.273 79.8231 163.498 79.8227H179.195C180.037 79.8227 180.616 79.4096 180.773 78.6941C180.773 78.6941 182.676 70.1406 182.679 70.1136C182.814 69.4467 182.582 68.9282 181.98 68.615C181.696 68.4692 181.415 68.3234 181.136 68.1749L178.415 66.7656L175.708 65.3561L174.66 64.8134C174.575 64.7707 174.504 64.7049 174.455 64.6237C174.407 64.5425 174.382 64.4491 174.384 64.3544C174.387 64.2148 174.445 64.0819 174.545 63.9842C174.645 63.8864 174.78 63.8313 174.92 63.8307L183.524 63.8685C186.096 63.882 188.67 63.701 191.202 63.2366C209.016 59.9561 220.847 45.7272 221.188 26.3655C221.478 9.84145 212.229 1.46875 193.709 1.46875L193.695 1.47685ZM189.42 46.5128H189.084C188.332 46.5128 188.196 46.4318 188.172 46.4048C188.161 46.3859 193.135 24.6078 193.137 24.5781C193.265 23.949 193.259 23.5872 192.869 23.3739C192.371 23.0985 185.11 19.2806 185.11 19.2806C185.025 19.2366 184.955 19.1697 184.907 19.0876C184.858 19.0055 184.834 18.9114 184.837 18.8162C184.84 18.6775 184.898 18.5457 184.998 18.4488C185.097 18.352 185.231 18.2978 185.37 18.2978H196.852C200.425 18.4058 202.418 21.5946 202.323 27.0378C202.158 36.4662 197.664 46.1808 189.42 46.5156V46.5128Z" fill="#FFFCE1"/>
</g>
<defs>
<clipPath id="clip0_95_17633">
<rect width="222" height="81" fill="white"/>
</clipPath>
</defs>
</svg>
