<svg width="300" height="50" viewBox="0 0 300 50" fill="none" xmlns="http://www.w3.org/2000/svg">
<g clip-path="url(#clip0_95_17581)">
<path fill-rule="evenodd" clip-rule="evenodd" d="M80.1683 0.188965L54.5875 49.9202H30.56L41.2656 29.3094H40.7853C31.9533 40.711 18.7759 48.2168 0 49.9202V29.5947C0 29.5947 12.0114 28.8892 19.0725 21.5064H0V0.189358H21.4354V17.7223L21.9166 17.7203L30.6758 0.189358H46.8869V17.6111L47.3681 17.6104L56.4558 0.188965H80.1683Z" fill="#146EF5"/>
<path d="M219.661 44.4309H226.564V5.02393H219.661V44.4309Z" fill="white"/>
<path fill-rule="evenodd" clip-rule="evenodd" d="M181.603 44.0287C183.104 44.6491 184.629 44.959 186.181 44.959C188.743 44.959 191.036 44.3389 193.059 43.0983C195.082 41.8577 196.649 40.1474 197.762 37.9682C198.875 35.7717 199.431 33.2822 199.431 30.4991C199.431 27.7159 198.858 25.2264 197.712 23.0301C196.565 20.8339 194.972 19.1322 192.932 17.9251C190.892 16.7012 188.574 16.0977 185.978 16.1144C184.326 16.1144 182.741 16.433 181.224 17.0701C179.707 17.7071 178.442 18.6125 177.431 19.786C177.353 19.8754 177.277 19.9656 177.203 20.0568V5.04932H170.274V44.4311H177.153L177.139 40.7521C177.317 40.969 177.507 41.1809 177.709 41.388C178.805 42.5115 180.103 43.3916 181.603 44.0287ZM188.684 37.6662C187.554 38.3535 186.265 38.6974 184.815 38.6974C183.382 38.6974 182.067 38.3452 180.87 37.6411C179.673 36.9201 178.721 35.9394 178.012 34.6988C177.321 33.4582 176.976 32.0499 176.976 30.474C176.959 28.898 177.296 27.4897 177.987 26.2491C178.695 24.9917 179.648 24.0193 180.845 23.3319C182.042 22.6278 183.365 22.2841 184.815 22.3008C186.265 22.2841 187.554 22.6194 188.684 23.3067C189.83 23.9774 190.707 24.9414 191.314 26.1988C191.937 27.4394 192.249 28.8646 192.249 30.474C192.249 32.0833 191.937 33.5085 191.314 34.7491C190.707 35.9897 189.83 36.9621 188.684 37.6662Z" fill="white"/>
<path d="M90.1697 7.41309H98.0594L105.117 33.0456L112.625 7.41309H119.2L127.343 32.5313L134.12 7.41309H141.352L130.681 44.431H123.878L115.598 19.8925L107.997 44.431H101.119L90.1697 7.41309Z" fill="white"/>
<path fill-rule="evenodd" clip-rule="evenodd" d="M153.003 45.0846C150.255 45.1012 147.777 44.4976 145.568 43.2738C143.377 42.0332 141.649 40.3147 140.384 38.1186C139.137 35.9222 138.513 33.4158 138.513 30.5992C138.513 27.8666 139.154 25.3936 140.435 23.1806C141.716 20.9676 143.453 19.2408 145.644 18.0001C147.836 16.7595 150.28 16.1392 152.978 16.1392C156.012 16.1392 158.667 16.8098 160.943 18.151C163.236 19.4922 164.947 21.3951 166.077 23.8596C167.223 26.3073 167.636 29.1155 167.316 32.2841H145.655C145.715 33.5465 146.032 34.6951 146.605 35.7294C147.246 36.8694 148.139 37.7581 149.285 38.3951C150.432 39.0321 151.713 39.3506 153.129 39.3506C154.208 39.334 155.211 39.1495 156.138 38.7976C157.066 38.4288 157.85 37.934 158.49 37.3139C159.148 36.6934 159.611 35.9893 159.881 35.2015H167.113C166.675 37.1294 165.798 38.8479 164.483 40.3567C163.168 41.8487 161.516 43.0139 159.527 43.8523C157.538 44.6904 155.363 45.1012 153.003 45.0846ZM146.63 25.3685C146.226 26.0691 145.947 26.8236 145.791 27.6318H160.149C160.045 26.6107 159.728 25.6802 159.198 24.8404C158.592 23.8512 157.765 23.0884 156.72 22.5519C155.675 21.9987 154.495 21.722 153.18 21.722C151.781 21.722 150.508 22.0406 149.362 22.6776C148.215 23.3147 147.305 24.2117 146.63 25.3685Z" fill="white"/>
<path d="M204.514 16.718C204.514 14.4714 205.028 12.4763 206.057 10.7328C207.085 8.9724 208.526 7.60602 210.381 6.63364C212.252 5.64447 214.435 5.13315 216.93 5.09961V11.2105C215.767 11.2273 214.772 11.4704 213.946 11.9399C213.137 12.3925 212.513 13.0547 212.075 13.9265C211.671 14.7291 211.453 15.6596 211.422 16.718H216.779V22.5272H211.417V44.4311H204.514V22.5272H200.063V16.718H204.514Z" fill="white"/>
<path fill-rule="evenodd" clip-rule="evenodd" d="M244.114 45.0346C241.299 45.0346 238.779 44.4224 236.553 43.1987C234.345 41.958 232.608 40.2478 231.344 38.0685C230.096 35.8721 229.472 33.3826 229.472 30.5995C229.472 27.7998 230.096 25.3017 231.344 23.1054C232.608 20.8924 234.345 19.1739 236.553 17.9501C238.779 16.7262 241.299 16.1143 244.114 16.1143C246.946 16.1143 249.475 16.7262 251.7 17.9501C253.943 19.1739 255.687 20.884 256.935 23.0803C258.182 25.2765 258.815 27.7829 258.832 30.5995C258.815 33.3826 258.182 35.8721 256.935 38.0685C255.704 40.2478 253.968 41.958 251.726 43.1987C249.484 44.4224 246.946 45.0346 244.114 45.0346ZM244.114 38.7224C245.598 38.7224 246.913 38.387 248.059 37.7163C249.205 37.029 250.09 36.0732 250.714 34.8495C251.338 33.6089 251.65 32.1923 251.65 30.5995C251.65 28.9901 251.338 27.565 250.714 26.3243C250.09 25.0837 249.205 24.1281 248.059 23.4575C246.913 22.7701 245.598 22.4264 244.114 22.4264C242.647 22.4264 241.341 22.7701 240.195 23.4575C239.065 24.1281 238.188 25.0837 237.565 26.3243C236.941 27.565 236.637 28.9901 236.654 30.5995C236.654 32.1923 236.966 33.6089 237.59 34.8495C238.23 36.0732 239.107 37.029 240.22 37.7163C241.349 38.387 242.647 38.7224 244.114 38.7224Z" fill="white"/>
<path d="M266.291 16.7178H258.604L266.924 44.4309H273.65L279.122 26.7305L285.031 44.4309H291.656L300 16.7178H293.047L288.314 33.9674L283.083 16.7178H276.356L271.15 34.3475L266.291 16.7178Z" fill="white"/>
</g>
<defs>
<clipPath id="clip0_95_17581">
<rect width="300" height="50" fill="white"/>
</clipPath>
</defs>
</svg>
