<svg width="178" height="81" viewBox="0 0 178 81" fill="none" xmlns="http://www.w3.org/2000/svg">
<g clip-path="url(#clip0_95_17615)">
<path d="M106.812 35.2262H102.375C102.284 34.8655 102.216 34.447 102.171 33.972C102.08 33.0474 102.08 32.1164 102.171 31.1918C102.216 30.7178 102.284 30.2997 102.375 29.9368H113.432V64.7254C112.879 64.8211 112.321 64.8886 111.76 64.9278C111.203 64.9702 110.645 64.9926 110.087 64.995C109.552 64.9916 109.017 64.9692 108.484 64.9278C107.924 64.8883 107.366 64.8204 106.813 64.7244V35.2248V35.2255L106.812 35.2262ZM145.305 43.9749C145.305 42.7087 145.134 41.4997 144.794 40.3459C144.452 39.1938 143.95 38.1882 143.292 37.3287C142.631 36.4706 141.79 35.7805 140.766 35.2609C139.742 34.7409 138.525 34.4806 137.114 34.4806C134.339 34.4806 132.212 35.3182 130.733 36.9902C129.254 38.6626 128.356 40.9907 128.037 43.9749H145.305H145.305ZM127.969 48.9927C128.06 52.7901 129.05 55.571 130.938 57.3332C132.826 59.0961 135.613 59.979 139.299 59.979C142.529 59.979 145.6 59.413 148.512 58.2829C148.875 58.961 149.171 59.7862 149.399 60.7582C149.622 61.7046 149.759 62.6691 149.808 63.6399C148.307 64.2745 146.657 64.747 144.861 65.0643C143.062 65.3798 141.072 65.539 138.889 65.539C135.703 65.539 132.972 65.0968 130.699 64.2161C128.423 63.3336 126.546 62.0903 125.067 60.4862C123.589 58.8818 122.508 56.9827 121.825 54.7897C121.143 52.5977 120.801 50.19 120.801 47.5679C120.801 44.9912 121.131 42.5834 121.791 40.3452C122.449 38.1086 123.464 36.1643 124.827 34.5142C126.193 32.8634 127.91 31.5529 129.981 30.5809C132.05 29.6089 134.496 29.1222 137.318 29.1222C139.729 29.1222 141.845 29.5297 143.666 30.3432C145.485 31.1568 147.009 32.2759 148.238 33.7C149.467 35.1244 150.399 36.8197 151.037 38.7853C151.673 40.7526 151.993 42.8883 151.993 45.1945C151.993 45.8277 151.969 46.4941 151.923 47.1944C151.886 47.794 151.841 48.393 151.787 48.9913H127.968L127.968 48.9923L127.969 48.9927ZM159.436 29.9368C159.911 29.8512 160.389 29.7834 160.869 29.7338C161.323 29.6896 161.802 29.6666 162.303 29.6666C162.803 29.6666 163.303 29.6896 163.804 29.7338C164.304 29.7798 164.76 29.8477 165.169 29.9368C165.305 30.6153 165.441 31.5091 165.577 32.6155C165.714 33.7233 165.783 34.6607 165.783 35.4296C166.738 33.8931 168.001 32.5585 169.57 31.4281C171.14 30.2987 173.153 29.7327 175.61 29.7327C175.974 29.7327 176.349 29.7448 176.736 29.7674C177.067 29.7851 177.398 29.8183 177.726 29.8682C177.816 30.2757 177.886 30.7058 177.931 31.1571C177.976 31.6088 177.999 32.0839 177.999 32.5808C177.999 33.1238 177.965 33.6894 177.897 34.2758C177.831 34.8427 177.752 35.4078 177.658 35.9708C177.29 35.8806 176.911 35.8351 176.531 35.8353H175.609C174.381 35.8353 173.209 36.0051 172.095 36.3436C170.979 36.6832 169.979 37.2824 169.091 38.1405C168.205 39 167.499 40.1757 166.977 41.6677C166.452 43.1596 166.191 45.081 166.191 47.4314V64.7244C165.638 64.8199 165.08 64.8882 164.519 64.9274C163.906 64.9727 163.348 64.9946 162.848 64.9946C162.289 64.9924 161.732 64.97 161.175 64.9274C160.592 64.8853 160.011 64.8177 159.434 64.7247V29.9372L159.436 29.9368ZM111.535 11.3613C111.535 12.173 111.387 12.978 111.099 13.7375C110.335 14.0237 109.524 14.1703 108.707 14.1705H108.697C107.88 14.1706 107.07 14.024 106.305 13.7379C106.016 12.9782 105.869 12.1729 105.869 11.361V11.3503C105.869 10.5138 106.023 9.71265 106.303 8.9734C107.068 8.68685 107.879 8.54029 108.696 8.54081H108.705C109.548 8.54081 110.354 8.69432 111.098 8.9734C111.386 9.73312 111.533 10.5384 111.533 11.3503V11.361H111.534L111.535 11.3613ZM119.874 9.47956H113.261L117.937 4.83355C117.202 3.80761 116.299 2.91097 115.266 2.18071L110.59 6.82672V0.255815C109.968 0.15189 109.339 0.0994782 108.708 0.0991211H108.696C108.055 0.0991211 107.426 0.153593 106.814 0.255815V6.82672L102.136 2.18036C101.621 2.54464 101.138 2.95118 100.691 3.39572L100.689 3.39784C100.242 3.84204 99.8334 4.32239 99.4667 4.83391L104.144 9.47956H97.5298C97.5298 9.47956 97.3724 10.714 97.3724 11.3521V11.3599C97.3724 11.998 97.4269 12.6233 97.5301 13.2321H104.145L99.4664 17.8774C100.202 18.9032 101.105 19.8 102.137 20.5309L106.814 15.8853V22.4565C107.426 22.5584 108.053 22.6122 108.694 22.6129H108.71C109.34 22.6123 109.968 22.56 110.59 22.4565V15.8853L115.267 20.532C115.782 20.1674 116.266 19.7609 116.713 19.3166H116.714C117.161 18.872 117.569 18.3913 117.936 17.8795L113.26 13.2324H119.875C119.977 12.6241 120.031 12.0008 120.031 11.3641V11.3479C120.031 10.7218 119.979 10.0975 119.875 9.48026L119.874 9.47956ZM0 63.7764L18.428 35.2942H2.1837C2.04771 34.4806 1.97972 33.5772 1.97972 32.5822C1.97972 31.6332 2.04878 30.7507 2.18513 29.9365H28.4615L28.8032 30.8197L10.2389 59.3685H27.6423C27.7787 60.2729 27.8474 61.1989 27.8474 62.1479C27.8474 63.0535 27.779 63.9119 27.6427 64.7254H0.34176L0 63.7754V63.7764ZM53.1672 48.3818C52.4847 48.2924 51.62 48.2029 50.5737 48.1113C49.5271 48.0218 48.6399 47.9758 47.913 47.9758C45.0913 47.9758 42.9414 48.4957 41.4637 49.5356C39.9838 50.5763 39.2458 52.1577 39.2458 54.2825C39.2458 55.6386 39.495 56.7011 39.9959 57.4694C40.4957 58.2391 41.1219 58.8255 41.8727 59.2327C42.6239 59.6394 43.4534 59.8884 44.3629 59.979C45.2725 60.0692 46.1376 60.1141 46.9564 60.1141C48.003 60.1141 49.0835 60.0575 50.1985 59.9443C51.3128 59.8322 52.3024 59.6621 53.1675 59.436V48.3818H53.1672ZM53.1672 41.8049C53.1672 39.1365 52.4847 37.2831 51.1202 36.2432C49.7546 35.2032 47.7756 34.6833 45.1821 34.6833C43.5883 34.6833 42.0991 34.8085 40.7118 35.0568C39.3389 35.3016 37.9824 35.6297 36.6498 36.0391C35.7848 34.5471 35.354 32.7626 35.354 30.6817C36.899 30.1851 38.605 29.801 40.4715 29.5297C42.3369 29.2581 44.134 29.1222 45.8638 29.1222C50.4135 29.1222 53.8713 30.1515 56.2377 32.2084C58.6029 34.267 59.787 37.5554 59.787 42.0755V63.8436C58.1935 64.2051 56.2605 64.5779 53.9856 64.9624C51.6855 65.3483 49.3567 65.5412 47.024 65.539C44.7948 65.539 42.7805 65.3363 40.9841 64.9292C39.1863 64.5214 37.6619 63.8673 36.411 62.9618C35.1586 62.0585 34.1931 60.9054 33.5096 59.5043C32.8275 58.1025 32.4861 56.4076 32.4861 54.4179C32.4861 52.4746 32.8841 50.7676 33.6804 49.2976C34.463 47.8452 35.5726 46.5921 36.9229 45.636C38.2878 44.6654 39.8574 43.941 41.6321 43.467C43.4071 42.992 45.2718 42.7543 47.2284 42.7543C48.6844 42.7543 49.8788 42.789 50.8119 42.8569C51.7439 42.9241 52.5292 43.0033 53.1665 43.0939V41.8053L53.1672 41.8049ZM73.9149 59.0279C74.7765 59.3441 75.6686 59.5714 76.577 59.7063C77.487 59.8425 78.6689 59.91 80.1263 59.91C81.7639 59.91 83.2648 59.6507 84.6297 59.1308C85.9954 58.6119 87.1666 57.8086 88.1449 56.7231C89.1232 55.6386 89.8964 54.2718 90.4653 52.62C91.0338 50.971 91.319 49.0164 91.319 46.7548C91.319 43.1384 90.6469 40.2677 89.3054 38.1426C87.9623 36.0182 85.7668 34.9556 82.7194 34.9556C81.582 34.9556 80.4891 35.1587 79.4442 35.5662C78.3962 35.9729 77.4642 36.5834 76.645 37.397C75.8262 38.2105 75.1665 39.2398 74.6664 40.4827C74.1644 41.7271 73.9152 43.2063 73.9152 44.9247V59.0289V59.0282L73.9149 59.0279ZM67.158 29.9361C67.6208 29.8456 68.0871 29.778 68.5571 29.7331C69.045 29.6882 69.5348 29.6658 70.0248 29.6659C70.4784 29.6659 70.9558 29.6892 71.4574 29.7331C71.9572 29.7791 72.435 29.8473 72.8906 29.9365C72.9355 30.0284 72.9932 30.3096 73.0615 30.7847C73.1292 31.2597 73.1975 31.768 73.2662 32.3099C73.3346 32.8528 73.4026 33.3738 73.4709 33.8698C73.5393 34.3678 73.5734 34.6844 73.5734 34.8198C74.0273 34.0972 74.5738 33.3958 75.211 32.7177C75.8483 32.0393 76.6112 31.4291 77.4983 30.8873C78.3855 30.3443 79.3859 29.9153 80.5012 29.5983C81.6155 29.2821 82.8554 29.1226 84.2207 29.1226C86.2677 29.1226 88.1677 29.4622 89.9203 30.1406C91.6711 30.8197 93.1716 31.8692 94.4236 33.2936C95.6743 34.718 96.6522 36.5265 97.3582 38.7184C98.063 40.9129 98.4155 43.5006 98.4155 46.4838C98.4155 52.4509 96.7886 57.1199 93.5347 60.4873C90.2809 63.8557 85.6753 65.539 79.7148 65.539C78.7134 65.539 77.6902 65.4711 76.6436 65.3356C75.5962 65.1994 74.687 65.0183 73.9131 64.7934V80.7295C73.3366 80.8227 72.7562 80.8906 72.1737 80.9329C71.5588 80.9771 71.001 81.0001 70.5005 81.0001C69.9426 80.9977 69.3849 80.9753 68.8287 80.9329C68.2683 80.8934 67.7103 80.8255 67.1569 80.7295V29.9365L67.158 29.9361Z" fill="#FF4A00"/>
</g>
<defs>
<clipPath id="clip0_95_17615">
<rect width="178" height="81" fill="white"/>
</clipPath>
</defs>
</svg>
