<svg width="201" height="24" viewBox="0 0 201 24" fill="none" xmlns="http://www.w3.org/2000/svg">
<path d="M3 0.165H12.141C14.539 0.165 16.662 0.66 18.51 1.65C20.38 2.64 21.832 4.015 22.866 5.775C23.9 7.513 24.417 9.493 24.417 11.715C24.417 13.937 23.9 15.928 22.866 17.688C21.832 19.426 20.38 20.79 18.51 21.78C16.662 22.77 14.539 23.265 12.141 23.265H3V0.165ZM12.009 21.747C14.143 21.747 16.024 21.329 17.652 20.493C19.28 19.635 20.534 18.447 21.414 16.929C22.294 15.411 22.734 13.673 22.734 11.715C22.734 9.757 22.294 8.019 21.414 6.501C20.534 4.983 19.28 3.806 17.652 2.97C16.024 2.112 14.143 1.683 12.009 1.683H4.683V21.747H12.009Z" fill="black"/>
<path d="M40.0647 23.43C37.7987 23.43 35.7527 22.924 33.9267 21.912C32.1007 20.878 30.6597 19.47 29.6037 17.688C28.5697 15.906 28.0527 13.915 28.0527 11.715C28.0527 9.515 28.5697 7.524 29.6037 5.742C30.6597 3.96 32.1007 2.563 33.9267 1.551C35.7527 0.517 37.7987 0 40.0647 0C42.3307 0 44.3767 0.506 46.2027 1.518C48.0287 2.53 49.4587 3.927 50.4927 5.709C51.5487 7.491 52.0767 9.493 52.0767 11.715C52.0767 13.937 51.5487 15.939 50.4927 17.721C49.4587 19.503 48.0287 20.9 46.2027 21.912C44.3767 22.924 42.3307 23.43 40.0647 23.43ZM40.0647 21.879C42.0007 21.879 43.7497 21.439 45.3117 20.559C46.8737 19.679 48.1057 18.469 49.0077 16.929C49.9097 15.367 50.3607 13.629 50.3607 11.715C50.3607 9.801 49.9097 8.074 49.0077 6.534C48.1057 4.972 46.8737 3.751 45.3117 2.871C43.7497 1.991 42.0007 1.551 40.0647 1.551C38.1287 1.551 36.3687 1.991 34.7847 2.871C33.2227 3.751 31.9907 4.972 31.0887 6.534C30.1867 8.074 29.7357 9.801 29.7357 11.715C29.7357 13.629 30.1867 15.367 31.0887 16.929C31.9907 18.469 33.2227 19.679 34.7847 20.559C36.3687 21.439 38.1287 21.879 40.0647 21.879Z" fill="black"/>
<path d="M76.7241 0.165V23.265H75.3381L59.5971 3.201V23.265H57.9141V0.165H59.3331L75.0411 20.229V0.165H76.7241Z" fill="black"/>
<path d="M93.2666 0.165H102.408C104.806 0.165 106.929 0.66 108.777 1.65C110.647 2.64 112.099 4.015 113.133 5.775C114.167 7.513 114.684 9.493 114.684 11.715C114.684 13.937 114.167 15.928 113.133 17.688C112.099 19.426 110.647 20.79 108.777 21.78C106.929 22.77 104.806 23.265 102.408 23.265H93.2666V0.165ZM102.276 21.747C104.41 21.747 106.291 21.329 107.919 20.493C109.547 19.635 110.801 18.447 111.681 16.929C112.561 15.411 113.001 13.673 113.001 11.715C113.001 9.757 112.561 8.019 111.681 6.501C110.801 4.983 109.547 3.806 107.919 2.97C106.291 2.112 104.41 1.683 102.276 1.683H94.9496V21.747H102.276Z" fill="black"/>
<path d="M120.53 0.165H122.213V23.265H120.53V0.165Z" fill="black"/>
<path d="M152.109 23.265L152.076 3.498L142.407 20.196H141.582L131.913 3.564V23.265H130.263V0.165H131.682L142.011 18.018L152.34 0.165H153.726L153.759 23.265H152.109Z" fill="black"/>
<path d="M176.102 16.764H162.704L159.766 23.265H157.951L168.577 0.165H170.26L180.887 23.265H179.072L176.102 16.764ZM175.475 15.345L169.402 2.013L163.363 15.345H175.475Z" fill="black"/>
<path d="M185.08 0.165H186.763V21.747H200.062V23.265H185.08V0.165Z" fill="black"/>
<rect y="1.67999" width="6" height="20.06" fill="white"/>
<rect x="90" y="1.67999" width="7" height="20.06" fill="white"/>
</svg>
